<svg width="280" height="187" xmlns="http://www.w3.org/2000/svg">
 <defs>
  <radialGradient gradientUnits="userSpaceOnUse" r="134.4475" cy="130.2637" cx="137.3784" id="SVGID_1_">
   <stop stop-color="#FFFFFF" offset="0"/>
   <stop stop-color="#FFFEFC" offset="0.1263"/>
   <stop stop-color="#FFFAF1" offset="0.2371"/>
   <stop stop-color="#FFF4DF" offset="0.342"/>
   <stop stop-color="#FFEBC6" offset="0.4434"/>
   <stop stop-color="#FFE0A5" offset="0.5413"/>
   <stop stop-color="#FFD88E" offset="0.6"/>
   <stop stop-color="#FFD581" offset="0.616"/>
   <stop stop-color="#FECC5F" offset="0.6629"/>
   <stop stop-color="#FDC543" offset="0.7132"/>
   <stop stop-color="#FDBF2E" offset="0.7673"/>
   <stop stop-color="#FCBB1F" offset="0.827"/>
   <stop stop-color="#FCB916" offset="0.8967"/>
   <stop stop-color="#FCB813" offset="1"/>
  </radialGradient>
  <radialGradient gradientUnits="userSpaceOnUse" gradientTransform="matrix(0.9145 0 0 1 70.8027 0)" r="137.7675" cy="137.6865" cx="73.2329" id="SVGID_2_">
   <stop stop-color="#FFFFFF" offset="0.53"/>
   <stop stop-color="#FFF7E9" offset="0.5983"/>
   <stop stop-color="#FFE3B0" offset="0.7402"/>
   <stop stop-color="#FFDFA3" offset="0.77"/>
   <stop stop-color="#FFD991" offset="0.8036"/>
   <stop stop-color="#FFC961" offset="0.8709"/>
   <stop stop-color="#FFC75A" offset="0.88"/>
   <stop stop-color="#FEC34A" offset="0.91"/>
   <stop stop-color="#FDBE32" offset="0.9657"/>
   <stop stop-color="#FDBC29" offset="1"/>
  </radialGradient>
  <radialGradient gradientUnits="userSpaceOnUse" gradientTransform="matrix(0.8479 -0.3426 0.3746 0.9272 164.2077 339.6694)" r="137.9571" cy="-197.1772" cx="55.936" id="SVGID_3_">
   <stop stop-color="#FFFFFF" offset="0.53"/>
   <stop stop-color="#FFF7E9" offset="0.5983"/>
   <stop stop-color="#FFE3B0" offset="0.7402"/>
   <stop stop-color="#FFDFA3" offset="0.77"/>
   <stop stop-color="#FFD991" offset="0.8036"/>
   <stop stop-color="#FFC961" offset="0.8709"/>
   <stop stop-color="#FFC75A" offset="0.88"/>
   <stop stop-color="#FEC34A" offset="0.91"/>
   <stop stop-color="#FDBE32" offset="0.9657"/>
   <stop stop-color="#FDBC29" offset="1"/>
  </radialGradient>
  <radialGradient gradientUnits="userSpaceOnUse" gradientTransform="matrix(0.6578 -0.6352 0.6947 0.7193 374.9227 610.5229)" r="137.9852" cy="-504.873" cx="172.6719" id="SVGID_4_">
   <stop stop-color="#FFFFFF" offset="0.53"/>
   <stop stop-color="#FFF7E9" offset="0.5983"/>
   <stop stop-color="#FFE3B0" offset="0.7402"/>
   <stop stop-color="#FFDFA3" offset="0.77"/>
   <stop stop-color="#FFD991" offset="0.8036"/>
   <stop stop-color="#FFC961" offset="0.8709"/>
   <stop stop-color="#FFC75A" offset="0.88"/>
   <stop stop-color="#FEC34A" offset="0.91"/>
   <stop stop-color="#FDBE32" offset="0.9657"/>
   <stop stop-color="#FDBC29" offset="1"/>
  </radialGradient>
  <radialGradient gradientUnits="userSpaceOnUse" r="137.8761" cy="137.6895" cx="137.7729" id="SVGID_5_">
   <stop stop-color="#FFFFFF" offset="0.53"/>
   <stop stop-color="#FFF7E9" offset="0.5983"/>
   <stop stop-color="#FFE3B0" offset="0.7402"/>
   <stop stop-color="#FFDFA3" offset="0.77"/>
   <stop stop-color="#FFD991" offset="0.8036"/>
   <stop stop-color="#FFC961" offset="0.8709"/>
   <stop stop-color="#FFC75A" offset="0.88"/>
   <stop stop-color="#FEC34A" offset="0.91"/>
   <stop stop-color="#FDBE32" offset="0.9657"/>
   <stop stop-color="#FDBC29" offset="1"/>
  </radialGradient>
  <radialGradient gradientUnits="userSpaceOnUse" gradientTransform="matrix(0.8479 0.3426 -0.3746 0.9272 111.7459 -353.1749)" r="137.8455" cy="445.3564" cx="227.4575" id="SVGID_6_">
   <stop stop-color="#FFFFFF" offset="0.53"/>
   <stop stop-color="#FFF7E9" offset="0.5983"/>
   <stop stop-color="#FFE3B0" offset="0.7402"/>
   <stop stop-color="#FFDFA3" offset="0.77"/>
   <stop stop-color="#FFD991" offset="0.8036"/>
   <stop stop-color="#FFC961" offset="0.8709"/>
   <stop stop-color="#FFC75A" offset="0.88"/>
   <stop stop-color="#FEC34A" offset="0.91"/>
   <stop stop-color="#FDBE32" offset="0.9657"/>
   <stop stop-color="#FDBC29" offset="1"/>
  </radialGradient>
  <radialGradient gradientUnits="userSpaceOnUse" gradientTransform="matrix(0.6578 0.6352 -0.6947 0.7193 284.753 -673.2359)" r="137.5379" cy="685.4414" cx="500.4507" id="SVGID_7_">
   <stop stop-color="#FFFFFF" offset="0.53"/>
   <stop stop-color="#FFF7E9" offset="0.5983"/>
   <stop stop-color="#FFE3B0" offset="0.7402"/>
   <stop stop-color="#FFDFA3" offset="0.77"/>
   <stop stop-color="#FFD991" offset="0.8036"/>
   <stop stop-color="#FFC961" offset="0.8709"/>
   <stop stop-color="#FFC75A" offset="0.88"/>
   <stop stop-color="#FEC34A" offset="0.91"/>
   <stop stop-color="#FDBE32" offset="0.9657"/>
   <stop stop-color="#FDBC29" offset="1"/>
  </radialGradient>
  <radialGradient gradientUnits="userSpaceOnUse" gradientTransform="matrix(0.3719 0.8354 -0.9135 0.4067 568.1044 -905.1508)" r="137.3581" cy="817.2959" cx="850.4233" id="SVGID_8_">
   <stop stop-color="#FFFFFF" offset="0.53"/>
   <stop stop-color="#FFF7E9" offset="0.5983"/>
   <stop stop-color="#FFE3B0" offset="0.7402"/>
   <stop stop-color="#FFDFA3" offset="0.77"/>
   <stop stop-color="#FFD991" offset="0.8036"/>
   <stop stop-color="#FFC961" offset="0.8709"/>
   <stop stop-color="#FFC75A" offset="0.88"/>
   <stop stop-color="#FEC34A" offset="0.91"/>
   <stop stop-color="#FDBE32" offset="0.9657"/>
   <stop stop-color="#FDBC29" offset="1"/>
  </radialGradient>
  <radialGradient gradientUnits="userSpaceOnUse" r="137.7936" cy="137.7344" cx="137.4985" id="SVGID_9_">
   <stop stop-color="#FFFFFF" offset="0.72"/>
   <stop stop-color="#FFF8ED" offset="0.8086"/>
   <stop stop-color="#FFE6BD" offset="0.9864"/>
   <stop stop-color="#FFE5B9" offset="1"/>
  </radialGradient>
 </defs>
 <g>
  <title>background</title>
  <rect fill="none" id="canvas_background" height="189" width="282" y="-1" x="-1"/>
 </g>
 <g>
  <title>Layer 1</title>
  <g id="svg_3">
   <circle id="svg_4" r="0.418" cy="139.644" cx="140.854" fill="none"/>
   <path id="svg_5" d="m273.827,108.235c-14.242,-60.888 -68.877,-106.235 -134.107,-106.235c-66.328,0 -121.703,46.888 -134.79,109.324l29.087,-16.572l16.036,11.226c0,0 9.382,-4.246 11.356,-5.493l11.595,12.22c0,0 25.174,19.95 25.911,19.95c0.743,0 22.215,-12.464 22.215,-12.464l19.252,-13.224l16.777,12.222l12.586,2.496l12.832,8.727c0,0 31.097,-20.702 36.034,-23.191c0,0 13.571,4.984 14.803,4.741c1.233,-0.255 22.457,-16.712 22.457,-16.712l17.956,12.985z" fill="url(#SVGID_1_)"/>
   <path id="svg_6" d="m141.052,69.228c1.321,0 2.717,0.033 4.02,0.104l4.9,-66.953c-3.384,-0.25 -6.802,-0.379 -10.252,-0.379c-2.23,0 -4.448,0.058 -6.653,0.162l3.268,67.229c1.559,-0.103 3.13,-0.163 4.717,-0.163z" fill="url(#SVGID_2_)"/>
   <path id="svg_7" d="m118.206,73.055l-20.683,-64.462c-5.388,1.734 -10.629,3.788 -15.703,6.142l28.442,61.586c2.557,-1.243 5.226,-2.334 7.944,-3.266z" fill="url(#SVGID_3_)"/>
   <path id="svg_8" d="m95.373,86.155l-43.643,-52.38c-4.347,3.616 -8.465,7.492 -12.338,11.608l49.772,46.802c1.919,-2.108 4.051,-4.171 6.209,-6.03z" fill="url(#SVGID_4_)"/>
   <path id="svg_9" d="m79.174,106.239l-60.431,-32.383c-2.296,4.113 -5.613,11.152 -7.164,15.301l64.11,24.863c1.012,-2.651 2.171,-5.291 3.485,-7.781z" fill="url(#SVGID_5_)"/>
   <path id="svg_10" d="m171.293,76.083l29.422,-59.864c-5.041,-2.493 -10.253,-4.688 -15.62,-6.559l-21.998,63.108c2.781,0.923 5.582,2.071 8.196,3.315z" fill="url(#SVGID_6_)"/>
   <path id="svg_11" d="m192.456,91.712l49.512,-44.25c-3.75,-4.152 -7.745,-8.076 -11.969,-11.746l-43.795,49.959c2.207,1.877 4.293,3.905 6.252,6.037z" fill="url(#SVGID_7_)"/>
   <path id="svg_12" d="m206.582,114.424l62.364,-22.415c-1.942,-5.263 -4.197,-10.372 -6.742,-15.308l-59.154,29.851c1.329,2.559 2.519,5.139 3.532,7.872z" fill="url(#SVGID_8_)"/>
   <path id="svg_13" d="m121.13,120.191l19.252,-13.224l16.777,12.222l12.586,2.496l12.832,8.727c0,0 13.996,-9.315 24.697,-16.2c-1.848,-4.867 -4.212,-9.479 -7.036,-13.766l46.458,-35.964l-49.388,31.839c-4.438,-5.79 -9.748,-10.88 -15.736,-15.065l29.12,-49.927l-33.298,47.22c-6.206,-3.72 -13.03,-6.517 -20.283,-8.2l8.337,-57.479l-13.248,56.526c-3.631,-0.572 -7.354,-0.875 -11.148,-0.875c-4.041,0 -8.001,0.342 -11.854,0.992l-13.277,-56.642l8.362,57.65c-7.187,1.748 -13.947,4.584 -20.09,8.336l-33.517,-47.527l29.333,50.29c-5.885,4.189 -11.099,9.263 -15.455,15.016l-49.878,-32.154l46.938,36.34c-2.703,4.165 -4.981,8.627 -6.774,13.333c5.8,4.585 23.461,18.5 24.075,18.5c0.743,0 22.215,-12.464 22.215,-12.464z" fill="url(#SVGID_9_)"/>
   <path id="svg_14" d="m273.592,107.311l-17.721,-12.825c0,0 -21.224,16.46 -22.457,16.709c-1.232,0.25 -14.803,-4.739 -14.803,-4.739c-4.938,2.495 -36.034,23.195 -36.034,23.195l-12.832,-8.732l-12.586,-2.49l-16.777,-12.22l-19.252,13.216c0,0 -21.472,12.47 -22.215,12.47c-0.737,0 -25.911,-19.953 -25.911,-19.953l-11.595,-12.22c-1.975,1.248 -11.356,5.491 -11.356,5.491l-16.036,-11.225l-28.889,16.46c-2.042,9.436 -3.128,19.223 -3.128,29.273c0,8.801 0.836,17.411 2.414,25.754c12.102,-2.205 34.172,-5.338 52.428,-3.034c26.652,3.37 43.309,7.857 71.443,14.217c28.131,6.358 48.865,12.347 79.216,8.977c28.413,-3.147 49.043,-8.927 67.955,-22.542c1.299,-7.601 1.982,-15.406 1.982,-23.371c0,-11.167 -1.335,-22.021 -3.846,-32.411z" fill="#004B8D"/>
  </g>
 </g>
</svg>